HIERARCHY
ROOT Hips
{
	OFFSET -0.001795 -0.223333 0.028219
	CHANNELS 6 Xposition Yposition Zposition Zrotation Yrotation Xrotation 
	JOINT LeftUpLeg
	{
		OFFSET 0.069520 -0.091406 -0.006815
		CHANNELS 3 Zrotation Yrotation Xrotation
		JOINT LeftLeg
		{
			OFFSET 0.034277 -0.375199 -0.004496
			CHANNELS 3 Zrotation Yrotation Xrotation
			JOINT LeftFoot
			{
				OFFSET -0.013596 -0.397961 -0.043693
				CHANNELS 3 Zrotation Yrotation Xrotation
				JOINT LeftToe
				{
					OFFSET 0.026358 -0.055791 0.119288
					CHANNELS 3 Zrotation Yrotation Xrotation
					End Site
					{
						OFFSET 0.000000 0.000000 0.000000
					}
				}
			}
		}
	}
	JOINT RightUpLeg
	{
		OFFSET -0.067670 -0.090522 -0.004320
		CHANNELS 3 Zrotation Yrotation Xrotation
		JOINT RightLeg
		{
			OFFSET -0.038290 -0.382569 -0.008850
			CHANNELS 3 Zrotation Yrotation Xrotation
			JOINT RightFoot
			{
				OFFSET 0.015774 -0.398415 -0.042312
				CHANNELS 3 Zrotation Yrotation Xrotation
				JOINT RightToe
				{
					OFFSET -0.025372 -0.048144 0.123348
					CHANNELS 3 Zrotation Yrotation Xrotation
					End Site
					{
						OFFSET 0.000000 0.000000 0.000000
					}
				}
			}
		}
	}
	JOINT Spine
	{
		OFFSET -0.002533 0.108963 -0.026696
		CHANNELS 3 Zrotation Yrotation Xrotation
		JOINT Spine1
		{
			OFFSET 0.005487 0.135180 0.001092
			CHANNELS 3 Zrotation Yrotation Xrotation
			JOINT Spine2
			{
				OFFSET 0.001457 0.052922 0.025425
				CHANNELS 3 Zrotation Yrotation Xrotation
				JOINT Neck
				{
					OFFSET -0.002778 0.213870 -0.042857
					CHANNELS 3 Zrotation Yrotation Xrotation
					JOINT Head
					{
						OFFSET 0.005152 0.064970 0.051349
						CHANNELS 3 Zrotation Yrotation Xrotation
						End Site
						{
							OFFSET 0.000000 0.000000 0.000000
						}
					}
				}
				JOINT LeftShoulder
				{
					OFFSET 0.078845 0.121749 -0.034090
					CHANNELS 3 Zrotation Yrotation Xrotation
					JOINT LeftArm
					{
						OFFSET 0.090977 0.030469 -0.008868
						CHANNELS 3 Zrotation Yrotation Xrotation
						JOINT LeftForeArm
						{
							OFFSET 0.259612 -0.012772 -0.027456
							CHANNELS 3 Zrotation Yrotation Xrotation
							JOINT LeftHand
							{
								OFFSET 0.249234 0.008986 -0.001171
								CHANNELS 3 Zrotation Yrotation Xrotation
								End Site
								{
									OFFSET 0.000000 0.000000 0.000000
								}
							}
						}
					}
				}
				JOINT RightShoulder
				{
					OFFSET -0.081759 0.118833 -0.038615
					CHANNELS 3 Zrotation Yrotation Xrotation
					JOINT RightArm
					{
						OFFSET -0.096012 0.032551 -0.009143
						CHANNELS 3 Zrotation Yrotation Xrotation
						JOINT RightForeArm
						{
							OFFSET -0.253742 -0.013329 -0.021401
							CHANNELS 3 Zrotation Yrotation Xrotation
							JOINT RightHand
							{
								OFFSET -0.255298 0.007772 -0.005559
								CHANNELS 3 Zrotation Yrotation Xrotation
								End Site
								{
									OFFSET 0.000000 0.000000 0.000000
								}
							}
						}
					}
				}
			}
		}
	}
}
MOTION
Frames: 13
Frame Time: 0.050000
-0.000229 0.936567 -0.051228 -0.753378 -3.737967 -3.174528 1.982536 0.545052 6.813775 -2.528566 0.341399 -3.514657 13.397846 25.310165 13.200876 0.000000 0.000000 0.000000 -6.233321 0.059553 2.369148 2.290849 -0.224424 0.112531 -7.676677 -19.251822 9.553607 0.000000 0.000000 0.000000 6.615303 -0.250142 2.764477 -5.612473 2.015004 -20.485132 -1.690467 9.114200 31.014164 10.486998 -2.393978 -32.539576 0.000000 0.000000 0.000000 -24.344936 -8.826127 1.651011 -54.696667 0.187643 -8.750959 -9.994200 -26.457953 3.416351 0.000000 0.000000 0.000000 31.880018 -2.826277 -1.021632 61.696117 1.328700 -8.865304 3.576228 28.035494 2.800625 0.000000 0.000000 0.000000 
-0.000861 0.936211 -0.051785 -0.645700 -4.190012 -2.997411 1.708356 0.552207 6.648044 -2.352037 0.329169 -3.607023 13.428195 25.409644 12.764867 0.000000 0.000000 0.000000 -6.504959 0.091660 2.175459 2.643182 -0.257220 0.054572 -7.653874 -19.183544 8.937685 0.000000 0.000000 0.000000 6.448552 -0.248493 2.756143 -5.610739 2.001514 -20.585028 -1.726324 9.005557 31.254117 10.450309 -2.503529 -32.202801 0.000000 0.000000 0.000000 -24.378091 -8.461070 1.601486 -54.832825 0.058776 -8.782639 -10.154826 -26.947786 3.555422 0.000000 0.000000 0.000000 31.917641 -2.369028 -0.876509 61.304092 0.795697 -9.089925 4.106528 28.784006 2.992790 0.000000 0.000000 0.000000 
-0.001455 0.935757 -0.052415 -0.629040 -4.098216 -2.863380 1.629897 0.543921 6.519785 -2.356300 0.330454 -3.704844 13.676580 25.742343 13.007924 0.000000 0.000000 0.000000 -6.662601 0.106496 1.986111 2.643893 -0.257420 0.070217 -7.536417 -18.932586 8.476691 0.000000 0.000000 0.000000 6.191358 -0.240950 2.696570 -5.550227 1.984588 -20.629742 -1.933452 8.714329 31.438468 10.385163 -2.519350 -32.167431 0.000000 0.000000 0.000000 -24.262298 -8.260739 1.590293 -55.372075 0.138476 -8.956781 -10.172854 -27.290523 3.634800 0.000000 0.000000 0.000000 31.882240 -2.212837 -0.857480 61.573840 0.499093 -9.259220 4.759469 28.956972 3.166970 0.000000 0.000000 0.000000 
-0.002040 0.935330 -0.053230 -0.528155 -4.251239 -2.625558 1.262617 0.551603 6.365454 -2.213018 0.322124 -3.932041 13.731984 25.862968 12.723544 0.000000 0.000000 0.000000 -6.828676 0.140403 1.443405 2.555499 -0.241194 0.417593 -7.375139 -18.601653 8.028038 0.000000 0.000000 0.000000 5.780285 -0.225489 2.569412 -5.453426 1.952425 -20.648209 -1.970351 8.321640 31.735028 10.206690 -2.565174 -31.871409 0.000000 0.000000 0.000000 -24.426005 -7.959076 1.603353 -55.564137 0.012454 -9.001760 -10.306865 -27.693984 3.767460 0.000000 0.000000 0.000000 31.496911 -1.462706 -0.524473 61.750983 0.291162 -9.355350 5.702214 29.462861 3.436680 0.000000 0.000000 0.000000 
-0.002540 0.935106 -0.054016 -0.459613 -4.044241 -2.522327 1.225733 0.541335 6.255799 -2.232191 0.322703 -3.926326 13.673529 25.802459 12.510719 0.000000 0.000000 0.000000 -7.173114 0.165941 1.053100 2.435706 -0.221909 0.840001 -7.315248 -18.473701 7.869222 0.000000 0.000000 0.000000 5.321005 -0.228032 2.671565 -5.313168 1.913830 -20.756160 -2.167575 7.902810 31.864439 10.210786 -2.626968 -31.885912 0.000000 0.000000 0.000000 -24.606648 -7.592915 1.491356 -55.810306 0.012473 -9.087770 -10.411223 -27.667897 3.817966 0.000000 0.000000 0.000000 31.518121 -0.992110 -0.309455 62.050643 -0.108871 -9.590216 6.067612 30.163929 3.624554 0.000000 0.000000 0.000000 
-0.002955 0.934679 -0.054630 -0.244203 -3.996566 -2.341000 0.962253 0.551736 6.220045 -2.486431 0.347959 -4.200172 13.586044 25.703196 12.284397 0.000000 0.000000 0.000000 -7.598138 0.200659 0.549806 2.550243 -0.222862 1.408872 -7.418837 -18.652488 7.631561 0.000000 0.000000 0.000000 4.731089 -0.213798 2.612476 -5.143498 1.863299 -20.917247 -2.291763 7.886138 32.128964 10.270022 -2.736766 -31.457277 0.000000 0.000000 0.000000 -24.331587 -7.558385 1.502748 -55.940027 -0.145464 -9.068016 -10.944699 -27.599223 3.942231 0.000000 0.000000 0.000000 31.564336 -0.723928 -0.108823 62.004893 -0.107881 -9.613786 6.618236 30.258745 3.782129 0.000000 0.000000 0.000000 
-0.003214 0.934372 -0.054855 -0.083284 -3.791932 -2.229372 0.674519 0.583141 6.409887 -2.721052 0.372796 -4.741313 13.903327 26.154411 12.437806 0.000000 0.000000 0.000000 -8.135722 0.231279 0.032543 2.726376 -0.231381 2.064425 -7.466709 -18.736600 7.545947 0.000000 0.000000 0.000000 4.236963 -0.200231 2.548333 -5.210865 1.887118 -20.836682 -2.411933 7.587160 32.134088 10.049555 -2.666839 -31.356392 0.000000 0.000000 0.000000 -24.696848 -7.190803 1.322853 -55.891378 -0.203611 -9.042270 -10.860474 -27.487528 3.918949 0.000000 0.000000 0.000000 31.341815 -0.141233 0.242597 62.266241 -0.228505 -9.693558 6.861300 30.710251 3.907699 0.000000 0.000000 0.000000 
-0.003515 0.933980 -0.054959 0.165376 -3.952630 -1.854307 0.383788 0.573986 6.127530 -2.862801 0.385996 -4.861067 13.981243 26.260297 12.505912 0.000000 0.000000 0.000000 -8.493592 0.267022 -0.523875 2.875590 -0.237197 2.614390 -7.542129 -18.870015 7.330119 0.000000 0.000000 0.000000 3.716056 -0.163975 2.142148 -5.134327 1.861773 -20.737676 -2.607931 7.939768 32.235668 9.807589 -2.586965 -30.769929 0.000000 0.000000 0.000000 -24.606322 -7.198463 1.254998 -55.850335 -0.244544 -9.005635 -10.929763 -27.302486 3.890365 0.000000 0.000000 0.000000 31.413915 0.336680 0.678629 62.321643 0.212684 -9.505882 7.044879 31.056481 4.023927 0.000000 0.000000 0.000000 
-0.004148 0.933749 -0.055102 0.411083 -3.530518 -1.708012 0.024567 0.596374 6.185048 -2.879343 0.388773 -5.228046 14.020167 26.292251 12.675338 0.000000 0.000000 0.000000 -8.684036 0.273565 -0.887912 2.870290 -0.226205 3.376211 -7.620098 -19.003186 7.162510 0.000000 0.000000 0.000000 3.414111 -0.150027 2.004051 -5.474598 1.968825 -20.564936 -2.761691 7.866558 32.375590 9.864115 -2.585493 -30.829490 0.000000 0.000000 0.000000 -24.275683 -7.197344 1.215228 -56.066632 -0.663384 -8.864332 -10.159650 -26.985911 3.648558 0.000000 0.000000 0.000000 31.365413 0.867161 1.149113 62.202441 0.945487 -9.154111 6.845408 30.839360 3.938682 0.000000 0.000000 0.000000 
-0.005474 0.933999 -0.055426 0.581530 -3.035716 -1.412686 -0.340932 0.609126 6.140181 -3.147260 0.405051 -5.303230 14.045815 26.309873 12.770947 0.000000 0.000000 0.000000 -8.275099 0.277946 -1.657274 2.777643 -0.200049 4.349395 -7.880241 -19.452767 6.215356 0.000000 0.000000 0.000000 2.764010 -0.147160 2.112216 -5.538284 2.001069 -20.323618 -2.780136 7.986899 32.396595 9.862796 -2.636434 -30.060421 0.000000 0.000000 0.000000 -24.258193 -7.556221 1.270977 -55.883020 -0.486467 -8.881236 -9.609376 -27.322783 3.533543 0.000000 0.000000 0.000000 31.643947 1.342565 1.672311 61.653919 1.485243 -8.879795 7.130186 31.522695 4.136948 0.000000 0.000000 0.000000 
-0.008058 0.934190 -0.055519 0.613092 -2.627243 -1.334990 -0.717638 0.595810 5.828404 -3.065488 0.390043 -4.644125 14.029469 26.308811 12.521223 0.000000 0.000000 0.000000 -7.827219 0.279801 -2.197678 3.141810 -0.237786 5.388700 -8.260354 -20.173774 5.412245 0.000000 0.000000 0.000000 2.326193 -0.171093 2.660264 -5.935615 2.131840 -19.985936 -2.590515 8.272225 32.456578 9.909738 -2.552336 -30.212533 0.000000 0.000000 0.000000 -24.086684 -7.538900 1.077367 -55.413186 -0.660289 -8.707772 -8.810386 -27.891805 3.378385 0.000000 0.000000 0.000000 31.654201 1.969155 2.377827 61.452952 2.553717 -8.397389 6.989428 33.016398 4.390262 0.000000 0.000000 0.000000 
-0.012356 0.934289 -0.055110 0.290843 -2.301619 -1.092129 -0.416209 0.521953 5.287846 -3.486023 0.416081 -4.029782 14.019874 26.381533 11.772807 0.000000 0.000000 0.000000 -6.939154 0.349739 -4.280850 3.250727 -0.210313 8.471295 -8.443129 -20.536903 4.562000 0.000000 0.000000 0.000000 2.145458 -0.225691 3.644223 -6.407251 2.265175 -20.106122 -2.472437 8.872505 31.981184 10.288311 -2.782348 -29.116525 0.000000 0.000000 0.000000 -23.565291 -7.758366 0.924970 -54.911801 -0.364758 -8.655130 -7.525989 -28.205659 3.024682 0.000000 0.000000 0.000000 32.482983 2.265831 2.982384 60.941874 4.551164 -7.426390 6.441024 33.726393 4.400253 0.000000 0.000000 0.000000 
-0.018441 0.934135 -0.053999 -0.251380 -1.138327 -1.062423 0.194655 0.431471 4.753851 -3.542826 0.405867 -2.422000 13.870178 26.213739 11.072887 0.000000 0.000000 0.000000 -5.605291 0.465268 -6.566875 3.688569 -0.268091 12.544085 -9.180611 -22.103006 3.562525 0.000000 0.000000 0.000000 1.965500 -0.304991 5.126341 -6.825327 2.406518 -20.110852 -2.301251 8.912653 31.910215 10.701071 -2.943464 -28.810602 0.000000 0.000000 0.000000 -23.000156 -8.310835 1.009601 -53.988015 -0.405720 -8.448471 -6.954388 -29.470764 2.947606 0.000000 0.000000 0.000000 32.908635 2.109125 3.247395 60.436416 5.552150 -6.997764 7.264530 35.989635 5.120278 0.000000 0.000000 0.000000 
